<svg width="496" height="504" viewBox="0 0 496 504" fill="none" xmlns="http://www.w3.org/2000/svg">
<g clip-path="url(#clip0_15_90)">
<path d="M153.167 369.722H91.0367C89.4704 369.722 88.1959 368.396 88.1959 366.766C88.1959 365.136 89.4704 363.81 91.0367 363.81H153.167C154.733 363.81 156.007 365.136 156.007 366.766C156.007 368.396 154.733 369.722 153.167 369.722Z" fill="#8D25AF"/>
<path d="M42.2056 385.547C42.2056 386.078 42.6154 386.504 43.1257 386.504H201.077C201.587 386.504 201.997 386.078 201.997 385.547C201.997 385.016 201.587 384.589 201.077 384.589H43.1257C42.6154 384.589 42.2056 385.016 42.2056 385.547Z" fill="#3F3D56"/>
<path d="M375.458 192.626C403.214 192.626 425.714 169.211 425.714 140.326C425.714 111.442 403.214 88.0269 375.458 88.0269C347.702 88.0269 325.202 111.442 325.202 140.326C325.202 169.211 347.702 192.626 375.458 192.626Z" fill="#FF6884"/>
<path d="M0 451.634C0 452.165 0.409805 452.591 0.920122 452.591H404.74C405.251 452.591 405.66 452.165 405.66 451.634C405.66 451.103 405.251 450.676 404.74 450.676H0.920122C0.409805 450.676 0 451.103 0 451.634Z" fill="#3F3D56"/>
<path d="M5.84125 386.974L4.54947 385.501L130.626 265.778L176.049 286.968L225.099 199.432L265.398 179.217L302.737 243.978C322.896 189.668 373.451 132.847 434.03 75.1984L435.52 76.454C378.703 133.062 330.091 189.927 302.503 247.45L267.966 187.372C266.335 184.534 262.906 183.438 260.025 184.833C237.997 195.499 219.623 212.91 207.36 234.737L176.635 289.427L169.621 286.155C146.164 275.213 118.704 279.799 99.7161 297.83L5.84125 386.974Z" fill="#3F3D56"/>
<path d="M436.872 86.0981L434.958 86.2364L431.869 79.2704L424.954 77.8087L424.685 75.8316L436.084 74.1458L436.872 86.0981Z" fill="#3F3D56"/>
<path d="M240.213 128.721L246.99 101.608L273.391 100.287L281.29 137.661L240.213 128.721Z" fill="#FFB6B6"/>
<path opacity="0.1" d="M240.213 128.721L246.99 101.608L273.391 100.287L281.29 137.661L240.213 128.721Z" fill="black"/>
<path d="M257.585 116.782C275.185 116.782 289.453 101.934 289.453 83.6185C289.453 65.3031 275.185 50.4556 257.585 50.4556C239.986 50.4556 225.718 65.3031 225.718 83.6185C225.718 101.934 239.986 116.782 257.585 116.782Z" fill="#FFB6B6"/>
<path d="M275.168 90.6381C275.168 90.6381 263.062 65.6771 248.878 67.1182C234.694 68.5593 227.221 70.3119 227.221 70.3119C227.221 70.3119 223.011 50.8711 242.834 43.3933C242.834 43.3933 217.629 17.5381 247.637 4.85495C277.645 -7.82817 294.436 8.34754 294.436 8.34754C294.436 8.34754 316.648 31.4233 288.673 48.6703C288.673 48.6703 309.445 77.7478 284.295 101.714C284.295 101.714 289.921 82.3201 284.051 85.8967C278.182 89.4734 275.168 90.6381 275.168 90.6381Z" fill="#2F2E41"/>
<path d="M222.425 265.852L218.186 270.08L187.563 338.411L184.211 451.436H235.662L259.797 395.465L276.059 450.896H322.321L333.045 350.272L304.217 279.108L222.425 265.852Z" fill="#2F2E41"/>
<path d="M275.724 125.966H241.363L203.988 146.897L212.704 187.362C212.704 187.362 210.693 211.781 215.386 229.921C220.079 248.061 218.067 271.782 218.067 271.782L304.217 279.108L306.899 196.781L305.558 141.664L275.724 125.966Z" fill="#8D25AF"/>
<path d="M209.687 147.246C209.687 147.246 188.904 147.943 185.552 161.897C182.2 175.851 179.518 247.712 179.518 247.712C179.518 247.712 181.529 290.353 203.988 270.079C226.448 249.805 224.436 188.409 224.436 188.409L209.687 147.246Z" fill="#8D25AF"/>
<path d="M411.271 503.195H288.794C284.646 503.195 281.271 499.684 281.271 495.367V363.606C281.271 359.289 284.646 355.777 288.794 355.777H411.271C415.42 355.777 418.794 359.289 418.794 363.606V495.367C418.794 499.684 415.42 503.195 411.271 503.195Z" fill="white"/>
<path d="M411.271 504H288.794C284.22 504 280.498 500.127 280.498 495.367V363.606C280.498 358.846 284.22 354.973 288.794 354.973H411.271C415.846 354.973 419.567 358.846 419.567 363.606V495.367C419.567 500.127 415.846 504 411.271 504ZM288.794 356.582C285.072 356.582 282.044 359.733 282.044 363.606V495.367C282.044 499.24 285.072 502.391 288.794 502.391H411.271C414.993 502.391 418.021 499.24 418.021 495.367V363.606C418.021 359.733 414.993 356.582 411.271 356.582H288.794Z" fill="#3F3D56"/>
<path d="M354.866 468.58H344.771C343.542 468.58 342.543 467.777 342.543 466.79V421.562C342.543 420.574 343.542 419.771 344.771 419.771H354.866C356.095 419.771 357.095 420.574 357.095 421.562V466.79C357.095 467.777 356.095 468.58 354.866 468.58Z" fill="#8D25AF"/>
<path d="M321.492 441.927C320.499 441.927 319.692 442.576 319.692 443.374V466.739C319.692 467.537 320.499 468.186 321.492 468.186H331.587C332.58 468.186 333.388 467.537 333.388 466.739V443.374C333.388 442.576 332.58 441.927 331.587 441.927H321.492Z" fill="#8D25AF"/>
<path d="M378.145 468.58H368.05C366.821 468.58 365.822 467.777 365.822 466.79V392.669C365.822 391.682 366.821 390.879 368.05 390.879H378.145C379.374 390.879 380.374 391.682 380.374 392.669V466.79C380.374 467.777 379.374 468.58 378.145 468.58Z" fill="#8D25AF"/>
<path d="M160.916 143.681H149.385C147.981 143.681 146.839 142.763 146.839 141.635V89.9718C146.839 88.844 147.981 87.9266 149.385 87.9266H160.916C162.32 87.9266 163.462 88.844 163.462 89.9718V141.635C163.462 142.763 162.32 143.681 160.916 143.681Z" fill="#8D25AF"/>
<path d="M122.794 113.235C121.66 113.235 120.737 113.976 120.737 114.887V141.578C120.737 142.489 121.66 143.23 122.794 143.23H134.325C135.459 143.23 136.382 142.489 136.382 141.578V114.887C136.382 113.976 135.459 113.235 134.325 113.235H122.794Z" fill="#8D25AF"/>
<path d="M187.508 143.681H175.977C174.573 143.681 173.431 142.763 173.431 141.635V56.968C173.431 55.8403 174.573 54.9229 175.977 54.9229H187.508C188.912 54.9229 190.054 55.8402 190.054 56.968V141.635C190.054 142.763 188.912 143.681 187.508 143.681Z" fill="#8D25AF"/>
<path d="M331.256 374.948C337.229 374.353 341.341 365.954 340.443 356.185C340.135 352.277 338.933 348.503 336.936 345.178L335.785 334.121L335.962 334.066L338.855 281.639C339.528 269.449 334.891 257.471 325.957 249.556C320.643 244.847 314.974 242.463 311.328 248.412C305.279 258.284 313.115 298.979 318.26 322.116L320.255 346.839C318.9 350.499 318.407 354.444 318.817 358.342C319.714 368.109 325.284 375.543 331.256 374.948Z" fill="#FFB6B6"/>
<path d="M298.183 143.059C298.183 143.059 315.614 136.083 323.66 157.013C331.705 177.944 340.42 281.201 340.42 281.201L299.524 273.526L298.183 143.059Z" fill="#8D25AF"/>
<path d="M58.8321 132.822H35.3608C33.7945 132.822 32.52 131.495 32.52 129.865C32.52 128.235 33.7945 126.91 35.3608 126.91H58.8321C60.3984 126.91 61.6724 128.235 61.6724 129.865C61.6724 131.496 60.3985 132.822 58.8321 132.822Z" fill="#E6E6E6"/>
<path d="M58.8321 90.9185H35.3608C33.7945 90.9185 32.52 89.5922 32.52 87.9622C32.52 86.3321 33.7945 85.0064 35.3608 85.0064H58.8321C60.3984 85.0064 61.6724 86.3321 61.6724 87.9622C61.6724 89.5922 60.3985 90.9185 58.8321 90.9185Z" fill="#E6E6E6"/>
<path d="M58.8321 60.6997H35.3608C33.7945 60.6997 32.52 59.3734 32.52 57.7434C32.52 56.1134 33.7945 54.7876 35.3608 54.7876H58.8321C60.3984 54.7876 61.6724 56.1133 61.6724 57.7434C61.6724 59.3734 60.3985 60.6997 58.8321 60.6997Z" fill="#E6E6E6"/>
<path d="M31.5784 143.827C31.5784 144.358 31.9882 144.784 32.4986 144.784H190.45C190.96 144.784 191.37 144.358 191.37 143.827C191.37 143.296 190.96 142.869 190.45 142.869H32.4986C31.9882 142.869 31.5784 143.296 31.5784 143.827Z" fill="#3F3D56"/>
<path d="M336.208 391.646C336.208 392.177 336.618 392.604 337.128 392.604H495.08C495.59 392.604 496 392.177 496 391.646C496 391.115 495.59 390.689 495.08 390.689H337.128C336.618 390.689 336.208 391.115 336.208 391.646Z" fill="#3F3D56"/>
<path d="M289.818 469.693C289.818 470.224 290.228 470.651 290.738 470.651H448.69C449.2 470.651 449.61 470.224 449.61 469.693C449.61 469.162 449.2 468.736 448.69 468.736H290.738C290.228 468.736 289.818 469.162 289.818 469.693Z" fill="#3F3D56"/>
<path d="M183.603 138.986C177.631 139.581 173.518 147.98 174.416 157.75C174.724 161.657 175.926 165.432 177.923 168.757L179.074 179.814L178.898 179.869L176.004 232.295C175.331 244.485 179.968 256.463 188.902 264.379C194.216 269.088 199.885 271.472 203.531 265.522C209.58 255.65 201.744 214.955 196.599 191.819L194.604 167.095C195.959 163.435 196.452 159.491 196.042 155.592C195.145 145.826 189.576 138.391 183.603 138.986Z" fill="#FFB6B6"/>
</g>
<path d="M34 3H493V501H3V34C3 16.8792 16.8792 3 34 3Z" stroke="#8D25AF" stroke-width="6"/>
<defs>
<clipPath id="clip0_15_90">
<path d="M0 34C0 15.2223 15.2223 0 34 0H496V504H0V34Z" fill="white"/>
</clipPath>
</defs>
</svg>
